<svg xmlns="http://www.w3.org/2000/svg" height="40px" viewBox="0 -960 960 960" width="40px" fill="#5f6368"><path d="M480-218.46q-79.95 0-136.97-57.02Q286-332.5 286-412.5v-287q0-79.95 57.03-136.97Q400.05-893.49 480-893.49t136.97 57.02Q674-779.45 674-699.5v287q0 80-57.03 137.02Q559.95-218.46 480-218.46ZM80-480v-38.46q0-63.08 23.46-118.66t64.2-96.53q40.73-40.96 96.34-64.42 55.61-23.47 118.69-23.47h10.79v38.85h-10.79q-108.84 0-185.57 76.73Q120-628.23 120-519.39V-480h-40Zm800 0v-39.39q0-108.84-76.73-185.57Q726.54-781.69 617.7-781.69h-10.79v-38.85h10.79q63.08 0 118.66 23.46 55.58 23.47 96.53 64.2 40.96 40.74 64.42 96.34 23.46 55.61 23.46 118.69V-480h-40ZM480-326.15q47.31 0 80.65-33.35Q594-392.85 594-440.16v-231.69q0-47.31-33.35-80.65Q527.31-786.15 480-786.15t-80.65 33.34Q366-719.46 366-672.15v231.69q0 47.31 33.35 80.66 33.34 33.34 80.65 33.34ZM346.15-118.46v-60h267.7v60h-267.7Z"/></svg> 